# xmcd
#
# Track frame offsets: 
#        150
#        17816
#        35506
#        51528
#        71797
#        90666
#        109312
#        131349
#        146683
#        164096
#        179279
#        196895
#        218048
#        234398
#        250336
#        267225
#        285276
#        302021
#        316995
#        334328
#
# Disc length: 4704 seconds
#
# Revision: 1
# Processed by: cddbd v1.5.2PL0 Copyright (c) Steve Scherf et al.
# Submitted via: ExactAudioCopyFreeDBPlugin 1.0
#
DISCID=2e125e14
DTITLE=Various Artist - McMusic 47
DYEAR=2009
DGENRE=Pop
TTITLE0=A-ha - Foot of the Mountain
TTITLE1=Lady Gaga - Poker Face
TTITLE2=Britney Spears - If U Seek Amy
TTITLE3=Kanye West - Love Lockdown
TTITLE4=Ne-Yo - Mad
TTITLE5=Pink - Sober
TTITLE6=Rihanna - Rehab
TTITLE7=U2 - Get on Your Boots
TTITLE8=Tone Damli Aaberge - I Know
TTITLE9=Veronica Maggio - Måndagsbarn
TTITLE10=Lenka - The Show
TTITLE11=Jan Johansen and Maria Arredondo - Ett sår i min själ
TTITLE12=Pussycat Dolls - I Hate This Part
TTITLE13=Kelly Clarkson - My Life Would Suck Without You
TTITLE14=Erik and Kriss - Rundt Fingern
TTITLE15=Asher Roth - I Love College
TTITLE16=Ess i ermet - Typisk
TTITLE17=Daniel Merryweather Feat Wale - Change
TTITLE18=Kevin Rudolf Feat Lil’Wayne - Let it Rock
TTITLE19=De Lillos - Hold på en venn
EXTD=
EXTT0=
EXTT1=
EXTT2=
EXTT3=
EXTT4=
EXTT5=
EXTT6=
EXTT7=
EXTT8=
EXTT9=
EXTT10=
EXTT11=
EXTT12=
EXTT13=
EXTT14=
EXTT15=
EXTT16=
EXTT17=
EXTT18=
EXTT19=
PLAYORDER=
